<svg xmlns="http://www.w3.org/2000/svg" viewBox="0 0 501.38 236.13"><defs><style>.cls-1{fill:#fff;}</style></defs><g id="レイヤー_2" data-name="レイヤー 2"><g id="仮決定ロゴ"><path class="cls-1" d="M292.53,150.17c-16.94-16.43-42.79-17.91-61.76-5.36l-19.69-19.09-11.56,11.92,19.08,18.51c-15.3,19.83-14.11,48.38,4.08,66a49.37,49.37,0,0,0,44.28,13l-4-20.54c-9.12,2.13-17.81.37-25.18-6.78-11.92-11.56-10.59-29.09.57-40.61s28.66-12.77,40.38-1.41c7.27,7.06,9.29,15.68,7.45,24.87L306.83,194A49.34,49.34,0,0,0,292.53,150.17Z"/><path class="cls-1" d="M414.43,233.2H386.15l-28.57-38v38H335.49V136.25h22.09v39.12l25.19-39.12h26.31l-32.22,48Z"/><path class="cls-1" d="M430.61,204.91H452.7c0,6.19,6.19,11,13.79,11,7.17,0,12.66-3.66,12.66-10,0-3.8-2.11-7.32-10.69-10.13l-11.54-3.52c-21.39-5.77-25.47-18.85-25.47-28,0-17.45,14.92-29.69,34.19-29.69,18.57,0,32.79,11.12,32.79,30H476.34c0-5.77-3.52-10.69-11.12-10.69-6.89,0-11.4,4.64-11.4,10,0,2,.57,6.33,9.57,8.86l10.13,3.24c13.79,4.22,27.86,11.26,27.86,28.84,0,20.83-18,30.11-35.74,30.11C445,234.88,430.61,222.78,430.61,204.91Z"/><path class="cls-1" d="M.77,70.35H22.86c0,6.19,6.19,11,13.79,11,7.18,0,12.66-3.66,12.66-10,0-3.8-2.11-7.32-10.69-10.13L27.08,57.69C5.7,51.92,1.62,38.83,1.62,29.69,1.62,12.24,16.53,0,35.81,0,54.38,0,68.59,11.12,68.59,30H46.5c0-5.77-3.52-10.69-11.12-10.69-6.89,0-11.39,4.64-11.39,10,0,2,.56,6.33,9.57,8.86l10.13,3.24c13.79,4.22,27.85,11.25,27.85,28.84,0,20.82-18,30.11-35.73,30.11C15.12,100.32.77,88.22.77,70.35Z"/><path class="cls-1" d="M156.53,1.69h22.09V98.63H156.53V60.36H124.59V98.63H102.5V1.69h22.09V40.52h31.94Z"/><path class="cls-1" d="M209.43,50.09C209.43,22.65,231.24,0,259,0c27.29,0,49.38,22.65,49.38,50.09S286.25,100.32,259,100.32C231.24,100.32,209.43,77.53,209.43,50.09Zm76.68,0c0-16.18-11.11-29.27-27.3-29.27s-27.15,13.09-27.15,29.27S242.49,79.5,258.81,79.5,286.11,66.27,286.11,50.09Z"/><path class="cls-1" d="M361.1,79.36h41.37V98.63H339V1.69H401.2V21H361.1v20h35.18V60.78H361.1Z"/><path class="cls-1" d="M429.48,70.35h22.09c0,6.19,6.19,11,13.79,11,7.18,0,12.66-3.66,12.66-10,0-3.8-2.11-7.32-10.69-10.13l-11.54-3.52c-21.38-5.77-25.46-18.86-25.46-28C430.33,12.24,445.24,0,464.52,0c18.57,0,32.78,11.12,32.78,30H475.21c0-5.77-3.52-10.69-11.11-10.69-6.9,0-11.4,4.64-11.4,10,0,2,.56,6.33,9.57,8.86l10.13,3.24c13.79,4.22,27.86,11.25,27.86,28.84,0,20.82-18,30.11-35.74,30.11C443.83,100.32,429.48,88.22,429.48,70.35Z"/><path class="cls-1" d="M39,134.63c22,0,31.89,16,31.89,32.08S61,198.64,39,198.64H21.58v32.93H0V134.63Zm-1,44.74c8.11,0,11.13-6.47,11.13-12.66s-3-12.81-11-12.81H21.58v25.47Z"/><path class="cls-1" d="M127.82,231.57V134.63h21.57v96.94Z"/></g></g></svg>