<svg xmlns="http://www.w3.org/2000/svg" viewBox="0 0 800 800"><defs><style>.cls-1{fill:#fff;}</style></defs><g id="レイヤー_2" data-name="レイヤー 2"><g id="白背景にパスくり抜きのロゴくん"><path class="cls-1" d="M329.22,676c-6,0-11.61,5.21-12.65,11.38s2.75,11.46,8.78,11.46c5.88,0,11.91-4.91,13-11.46A9.23,9.23,0,0,0,329.22,676Z"/><path class="cls-1" d="M456.42,690c-1,5.43,2.31,8.85,8,8.85a12.37,12.37,0,0,0,12.5-9.82l1.64-9.15h-8C463,679.9,457.46,684.06,456.42,690Z"/><path class="cls-1" d="M162.67,276.18H144.1v28.44h18.42c9.06,0,12.43-7.23,12.43-14.14S171.58,276.18,162.67,276.18Z"/><path class="cls-1" d="M595.6,676a12.14,12.14,0,0,0-12,8.56h20.54C604.46,679.08,601,676,595.6,676Z"/><path class="cls-1" d="M409.08,193.07c18.07,0,30.48-14.77,30.48-32.85s-12.41-32.68-30.48-32.68c-18.23,0-30.33,14.61-30.33,32.68S390.85,193.07,409.08,193.07Z"/><path class="cls-1" d="M177,676c-5.95,0-11.76,4.68-12.95,11.38s3,11.46,8.93,11.46,11.76-4.68,13-11.46S183,676,177,676Z"/><path class="cls-1" d="M0,0V800H800V0ZM642,172.64l-12.89-3.93c-23.88-6.44-28.44-21.06-28.44-31.27,0-19.49,16.66-33.16,38.19-33.16,20.74,0,36.61,12.41,36.61,33.47H650.77c0-6.44-3.93-11.94-12.41-11.94-7.7,0-12.73,5.18-12.73,11.16,0,2.2.63,7.07,10.68,9.9l11.32,3.61c15.4,4.72,31.11,12.57,31.11,32.22,0,23.26-20.11,33.63-39.91,33.63-23.1,0-39.13-13.52-39.13-33.47h24.67c0,6.91,6.91,12.25,15.4,12.25,8,0,14.14-4.08,14.14-11.16C653.91,179.71,651.56,175.78,642,172.64ZM498.65,106.16h69.46v21.53H523.32V150h39.29v22.16H523.32v20.74h46.2v21.53H498.65Zm-3.93,150.3h24.67v43.69l28.13-43.69h29.39l-36,53.59,42,54.69H551.29l-31.9-42.43v42.43H494.72ZM409.23,104.28c30.49,0,55.16,25.3,55.16,55.94s-24.67,56.11-55.16,56.11c-31,0-55.31-25.46-55.31-56.11S378.27,104.28,409.23,104.28ZM355.76,244.7l22,21.32c21.19-14,50.07-12.36,69,6a55.12,55.12,0,0,1,16,49l-23.06-3.76c2.06-10.26-.2-19.89-8.32-27.77-13.08-12.69-32.62-11.28-45.1,1.58s-14,32.44-.64,45.35c8.24,8,17.94,10,28.12,7.57l4.46,22.94a55.12,55.12,0,0,1-49.45-14.47c-20.32-19.72-21.65-51.6-4.56-73.76L342.85,258ZM163.14,172.64l-12.89-3.93c-23.89-6.44-28.44-21.06-28.44-31.27,0-19.49,16.65-33.16,38.18-33.16,20.75,0,36.62,12.41,36.62,33.47H171.94c0-6.44-3.93-11.94-12.42-11.94-7.7,0-12.73,5.18-12.73,11.16,0,2.2.63,7.07,10.69,9.9l11.31,3.61c15.41,4.72,31.12,12.57,31.12,32.22,0,23.26-20.12,33.63-39.92,33.63-23.1,0-39.13-13.52-39.13-33.47h24.68c0,6.91,6.91,12.25,15.4,12.25,8,0,14.14-4.08,14.14-11.16C175.08,179.71,172.72,175.78,163.14,172.64ZM149.47,683.1h-18l-3.79,21.73H120l9-51.28H159.3l-1.19,7H135.48l-2.75,15.56h17.93Zm43.84,4.31a22.15,22.15,0,0,1-21.51,18.31c-9.9,0-17-7.29-15-18.31a22,22,0,0,1,21.43-18.23C188.1,669.18,195.25,676.4,193.31,687.41ZM163.6,326.15H144.1v36.77H120V254.65h43.6c24.56,0,35.61,17.91,35.61,35.83S188.16,326.15,163.6,326.15Zm62.68,351.21a11.22,11.22,0,0,0-4.91-1.19c-6.32,0-10.49,6.78-12.13,16.15L207,704.83h-7.37l6.1-34.76h7.37l-1.34,7.59c2.9-5.95,6.85-8.48,11.24-8.48a11.88,11.88,0,0,1,5.73,1.26Zm8.2-571.2h24.67v43.38h35.68V106.16H319.5V214.44H294.83V171.7H259.15v42.74H234.48Zm52.38,148.49V362.92h-24.1V254.65ZM263.42,704.83h-7.66l7.81-44.29H248.32l1.19-7h38.18l-1.19,7H271.24Zm42.73-27.47a11.29,11.29,0,0,0-4.92-1.19c-6.32,0-10.49,6.78-12.13,16.15l-2.23,12.51H279.5l6.11-34.76H293l-1.34,7.59c2.91-5.95,6.85-8.48,11.24-8.48a11.88,11.88,0,0,1,5.73,1.26Zm36.54,27.47H335.4l1-5.88a17.28,17.28,0,0,1-13.55,6.77c-9.08,0-15.55-7.59-13.69-18.31,1.79-10.34,10.57-18.23,20.39-18.23,5.06,0,9.45,2.16,11,6.1l.89-5.21h7.29Zm29.4-6a13.31,13.31,0,0,0,9.08-3.64l4.09,4.54a20.93,20.93,0,0,1-14.58,6c-10.05,0-17.49-7.29-15.56-18.31s11.91-18.23,22-18.23c5.65,0,10.05,2.31,12.5,6L384,679.67a9.62,9.62,0,0,0-8-3.64,14,14,0,0,0-13.62,11.38C361.3,694,365.54,698.87,372.09,698.87Zm52.92,6h-9.53l-12.2-16.52-3,16.52H393l9.45-53.66h7.29l-5.43,30.74,13.47-11.84h9.9l-17.34,15.11Zm67.06-24.93h-6.4L484,689.05c-1,5.88.82,9.68,4.61,9.68h1.42l-1.19,6.77H487.3c-5.65-.08-9.15-2.61-9.52-6.55-3.43,4.17-9.3,6.77-15.48,6.77-9.6,0-15-6-13.4-14.73a19,19,0,0,1,11.69-14.15c-3.2-1.71-4.77-6-3.95-10.94a16.39,16.39,0,0,1,16.45-13.24c5.66,0,9.82,2.68,11.76,6.84l-6.4,4a6.82,6.82,0,0,0-6.48-4,8.19,8.19,0,0,0-8,7c-.82,4.39,1.93,7.44,7.14,7.44h8.48l1-5.51h7.15l-1,5.59h6.4Zm16.65-217.49a2.36,2.36,0,0,0-1.17-.11,9,9,0,0,0-1.48.48c2.36,4.53,3.23,8.16-1.75,12.71-5.19,4.75-8.77,1.81-13.63-.16.1,4.76,3.57,9.18-2,12.32-3.67,2.09-6.67,5.44-12.36,2,2.21,6.26-1.36,8.68-4.63,11.35s-6.05,5.94-12,1.83c2.12,5.7,0,8.54-3.09,11.11-2.91,2.41-5.17,6.11-9.73,3.62-2.84,7.93-8.08,12.76-16.37,16.07-2.84,7.3-9.55,13.1-16,12.62,2.47,3.88.18,6.21-2.64,8.13-3.48,2.38-5.8,6-10.62,7.1-3,.65-4.91,5-7.77,7.11-2.64,1.93-5.88,3-9.79,5-1.13,4.5-10.77,10-16.72,8.27-2.24-.66-3.28-.29-2.89,2.39.14,1-.39,2.8-1.07,3.08-5.15,2.08-9.57,7.34-16.09,4a4.09,4.09,0,0,0-2-.11c-.67,2.36-.7,5.49-1.88,6-3.53,1.56-6.74,5.15-11.36,3-2.08-1-6.49-2.41-6.49-2.41l-.67,1.09s-.59,5.37-1.44,5.56l-24.64,3.84c-7.48.11-15.05.7-22.44-.16-9.7-1.13-13.93-8.63-15.61-17.18a57.23,57.23,0,0,1-.37-16.84c.24-2.24,2.77-5.06,5-6.13,9.71-4.7,19.72-8.8,29.56-13.25,6.71-3,13.63-5.76,19.88-9.56,7-4.26,9.38-11.73,12.07-19.28C333.16,507.32,341,489.25,348,470.9c1.56-4.09,2-8.63,2.74-13,2.69-16.73,1-33.18-3.37-49.45-1.19-4.48-1-4.8,3.77-5.56l5.48-.88c12.13-1.9,15.87.3,19.88,12.13,9.38-4.1,19-2.65,28.39-1.89,12.1,1,21.38-3.62,29.09-12.23A35.2,35.2,0,0,0,444.56,374c.07-1.84-.36-3.71-.19-5.53.95-10.36,9-13.64,16.74-8.47a102.49,102.49,0,0,0,24.13,11.66c11.94,4.05,20.4,13,27,23.46a15.71,15.71,0,0,0,9.33,7.06,51,51,0,0,1,13.73,6.71c7.9,5.6,10,13.68,5.85,22.35-2.42,5.05-6,9.58-9.18,14.24-2.08,3-4.69,4.08-8,1.57-1-.76-2.34-1.09-4.86-2.21,1,3.12,1.41,5.34,2.42,7.24,1.5,2.85,1.43,4.84-1.1,7.29C516.93,462.71,513.66,465.22,508.72,462.41ZM547.37,676.1l-1.19,7h-18l-3.8,21.73h-7.66l9-51.28H556l-1.19,7H532.19l-2.76,15.56ZM563,704.83h-7.29l6.1-34.76h7.29Zm9.75-47.41a6.06,6.06,0,0,1-5.88,4.69,3.88,3.88,0,0,1-4.09-4.69,5.83,5.83,0,0,1,5.73-4.69A4,4,0,0,1,572.75,657.42ZM611,687.26a31.1,31.1,0,0,1-.75,3.13H582.58c0,5.66,3.64,8.56,9.3,8.56a13.77,13.77,0,0,0,10.64-5.06l5.29,2.9a21.52,21.52,0,0,1-17.49,8.93c-10.05,0-16.68-7.37-14.74-18.38a21.63,21.63,0,0,1,21.14-18.16C606.61,669.18,612.87,676.32,611,687.26Zm13.47,17.57h-7.3l9.46-53.66h7.29Zm46.07,0h-7.29l.89-5.14a17.25,17.25,0,0,1-13,6c-9.45,0-16-7.29-14.06-18.31s11-18.23,20.39-18.23c4.84,0,9.3,2,11,5.88l4.25-23.89H680ZM640.08,366.62c-23.1,0-39.13-13.51-39.13-33.47h24.68c0,6.92,6.91,12.26,15.4,12.26,8,0,14.14-4.09,14.14-11.16,0-4.24-2.36-8.17-11.94-11.31L630.34,319c-23.89-6.45-28.44-21.06-28.44-31.28,0-19.48,16.65-33.16,38.18-33.16,20.75,0,36.62,12.42,36.62,33.48H652c0-6.44-3.93-11.95-12.42-11.95-7.7,0-12.73,5.19-12.73,11.16,0,2.2.63,7.07,10.69,9.9l11.31,3.62C664.28,305.49,680,313.35,680,333,680,356.25,659.88,366.62,640.08,366.62Z"/><path class="cls-1" d="M657.15,676c-5.95,0-11.61,4.76-12.8,11.31s2.83,11.53,8.78,11.53a13.71,13.71,0,0,0,13.1-11.53C667.5,680.34,662.51,676,657.15,676Z"/></g></g></svg>